<?xml version="1.0" encoding="UTF-8" standalone="no"?>
<!-- Created with Inkscape (http://www.inkscape.org/) -->

<svg
   width="9.7265215mm"
   height="9.7265224mm"
   viewBox="0 0 9.7265215 9.7265224"
   version="1.1"
   id="svg1"
   inkscape:version="1.3 (0e150ed6c4, 2023-07-21)"
   sodipodi:docname="drawing.svg"
   xmlns:inkscape="http://www.inkscape.org/namespaces/inkscape"
   xmlns:sodipodi="http://sodipodi.sourceforge.net/DTD/sodipodi-0.dtd"
   xmlns="http://www.w3.org/2000/svg"
   xmlns:svg="http://www.w3.org/2000/svg">
  <sodipodi:namedview
     id="namedview1"
     pagecolor="#d7d7d7"
     bordercolor="#666666"
     borderopacity="1.0"
     inkscape:showpageshadow="2"
     inkscape:pageopacity="0.0"
     inkscape:pagecheckerboard="true"
     inkscape:deskcolor="#d1d1d1"
     inkscape:document-units="in"
     showborder="false"
     inkscape:zoom="1.4912879"
     inkscape:cx="116.67767"
     inkscape:cy="705.7658"
     inkscape:window-width="1920"
     inkscape:window-height="1051"
     inkscape:window-x="-9"
     inkscape:window-y="-9"
     inkscape:window-maximized="1"
     inkscape:current-layer="layer1"
     showgrid="false" />
  <defs
     id="defs1" />
  <g
     inkscape:label="Layer 1"
     inkscape:groupmode="layer"
     id="layer1"
     transform="translate(-71.072153,-231.67405)">
    <path
       id="rect5-6"
       style="fill:#5d2e46;fill-opacity:1;stroke-width:13.2352;stroke-linecap:round;stroke-linejoin:round;stroke-dashoffset:3.77953"
       d="m 80.425545,232.04737 c -0.497505,-0.4975 -1.298472,-0.49787 -1.795978,-3.6e-4 l -2.694148,2.69414 -2.69415,-2.69415 c -0.497505,-0.4975 -1.298474,-0.49713 -1.79598,3.7e-4 -0.497506,0.49751 -0.497506,1.29811 0,1.79561 l 2.69415,2.69415 -2.694148,2.69415 c -0.497506,0.49751 -0.497508,1.29884 -2e-6,1.79635 0.497505,0.4975 1.298474,0.49714 1.79598,-3.7e-4 l 2.694148,-2.69415 2.69415,2.69415 c 0.497506,0.49751 1.298472,0.49787 1.795978,3.7e-4 0.497506,-0.49751 0.497508,-1.29884 2e-6,-1.79635 l -2.694149,-2.69415 2.694147,-2.69415 c 0.497506,-0.4975 0.497506,-1.2981 0,-1.79561 z"
       inkscape:export-filename="upload.svg"
       inkscape:export-xdpi="400"
       inkscape:export-ydpi="400" />
  </g>
</svg>
