<?xml version="1.0" encoding="UTF-8" standalone="no"?>
<!-- Created with Inkscape (http://www.inkscape.org/) -->

<svg
   width="25.4mm"
   height="25.400002mm"
   viewBox="0 0 25.4 25.400002"
   version="1.1"
   id="svg1"
   inkscape:version="1.3 (0e150ed6c4, 2023-07-21)"
   sodipodi:docname="drawing.svg"
   xmlns:inkscape="http://www.inkscape.org/namespaces/inkscape"
   xmlns:sodipodi="http://sodipodi.sourceforge.net/DTD/sodipodi-0.dtd"
   xmlns="http://www.w3.org/2000/svg"
   xmlns:svg="http://www.w3.org/2000/svg">
  <sodipodi:namedview
     id="namedview1"
     pagecolor="#d7d7d7"
     bordercolor="#666666"
     borderopacity="1.0"
     inkscape:showpageshadow="2"
     inkscape:pageopacity="0.0"
     inkscape:pagecheckerboard="true"
     inkscape:deskcolor="#d1d1d1"
     inkscape:document-units="in"
     showborder="false"
     inkscape:zoom="1.4912879"
     inkscape:cx="472.07518"
     inkscape:cy="591.77038"
     inkscape:window-width="1920"
     inkscape:window-height="1051"
     inkscape:window-x="-9"
     inkscape:window-y="-9"
     inkscape:window-maximized="1"
     inkscape:current-layer="layer1"
     showgrid="false" />
  <defs
     id="defs1" />
  <g
     inkscape:label="Layer 1"
     inkscape:groupmode="layer"
     id="layer1"
     transform="translate(-37.258065,-152.58064)">
    <circle
       style="fill:#f433ab;fill-opacity:1;stroke-width:33.0797;stroke-linecap:round;stroke-linejoin:round;stroke-dashoffset:3.77953"
       id="path5"
       cx="49.958065"
       cy="165.28064"
       r="12.7"
       inkscape:export-filename="upload.svg"
       inkscape:export-xdpi="2000"
       inkscape:export-ydpi="2000" />
    <path
       id="rect5"
       style="fill:#5d2e46;fill-opacity:1;stroke-width:13.2352;stroke-linecap:round;stroke-linejoin:round;stroke-dashoffset:3.77953"
       d="m 49.958065,158.93064 c -0.703579,0 -1.270207,0.56611 -1.270207,1.26969 v 3.8101 h -3.810103 c -0.703579,0 -1.26969,0.56663 -1.26969,1.27021 0,0.70358 0.566111,1.26969 1.26969,1.26969 h 3.810103 v 3.8101 c 0,0.70358 0.566628,1.27021 1.270207,1.27021 0.703579,0 1.26969,-0.56663 1.26969,-1.27021 v -3.8101 h 3.810103 c 0.70358,0 1.270207,-0.56611 1.270207,-1.26969 0,-0.70358 -0.566627,-1.27021 -1.270207,-1.27021 h -3.810103 v -3.8101 c 0,-0.70358 -0.566111,-1.26969 -1.26969,-1.26969 z" />
  </g>
</svg>
